<?xml version="1.0" encoding="UTF-8" standalone="no"?>
<svg
   xmlns:dc="http://purl.org/dc/elements/1.1/"
   xmlns:cc="http://creativecommons.org/ns#"
   xmlns:rdf="http://www.w3.org/1999/02/22-rdf-syntax-ns#"
   xmlns:svg="http://www.w3.org/2000/svg"
   xmlns="http://www.w3.org/2000/svg"
   xmlns:sodipodi="http://sodipodi.sourceforge.net/DTD/sodipodi-0.dtd"
   xmlns:inkscape="http://www.inkscape.org/namespaces/inkscape"
   viewBox="0 0 64 64"
   enable-background="new 0 0 64 64"
   version="1.1"
   id="svg132"
   sodipodi:docname="1.svg"
   inkscape:version="0.92.2 5c3e80d, 2017-08-06">
  <metadata
     id="metadata138">
    <rdf:RDF>
      <cc:Work
         rdf:about="">
        <dc:format>image/svg+xml</dc:format>
        <dc:type
           rdf:resource="http://purl.org/dc/dcmitype/StillImage" />
      </cc:Work>
    </rdf:RDF>
  </metadata>
  <defs
     id="defs136" />
  <sodipodi:namedview
     pagecolor="#ffffff"
     bordercolor="#666666"
     borderopacity="1"
     objecttolerance="10"
     gridtolerance="10"
     guidetolerance="10"
     inkscape:pageopacity="0"
     inkscape:pageshadow="2"
     inkscape:window-width="1789"
     inkscape:window-height="1093"
     id="namedview134"
     showgrid="false"
     inkscape:zoom="9.3957043"
     inkscape:cx="13.505777"
     inkscape:cy="28.067797"
     inkscape:window-x="0"
     inkscape:window-y="58"
     inkscape:window-maximized="0"
     inkscape:current-layer="svg132" />
  <g
     fill="#d3976e"
     id="g6">
    <path
       d="M57.7 54.7 2 62 2 51.6 57.7 44.1z"
       id="path2" />
    <path
       d="M57.8 33.2 2 40.9 2 29.9 57.8 22z"
       id="path4" />
  </g>
  <path
     fill="#fff"
     d="M57.7 44.1 2 51.6 2 40.9 57.8 33.2z"
     id="path8" />
  <g
     fill="#c98659"
     id="g86">
    <path
       d="m3 34.7l2.7 2.1 2.5-2.8-2.8-2z"
       id="path22" />
    <path
       d="m20.8 34.2l2.7 2.1 2.5-2.8-2.7-2z"
       id="path24" />
    <path
       d="m47.5 31.5l2.6 2.1 2.6-2.8-2.6-2.1z"
       id="path26" />
    <path
       d="m25.6 30.6l2.2 1.7 2-2.3-2.2-1.6z"
       id="path28" />
    <path
       d="m45.6 27.9l-2.1 2.2 2.1 1.6 2.1-2.2z"
       id="path30" />
    <path
       d="m18.7 28.2l-2 2.2 2.1 1.6 2.1-2.2z"
       id="path32" />
    <path
       d="m8.5 36.4l2.4 1.8 2.2-2.4-2.4-1.8z"
       id="path34" />
    <path
       d="m14.3 31.3l-1.4 1.6 1.6 1.1 1.4-1.5z"
       id="path36" />
    <path
       d="m30.8 32.4l1.5 1.1 1.4-1.6-1.5-1.1z"
       id="path38" />
    <path
       d="m35.1 28.8l1.6 1.2 1.4-1.6-1.5-1.2z"
       id="path40" />
    <path
       d="m39.7 32.1l1.5 1.1 1.4-1.5-1.5-1.2z"
       id="path42" />
    <path
       d="m49.6 25.4l-1.5-1.2-1.4 1.6 1.5 1.2z"
       id="path44" />
    <path
       d="m34.1 34.2l1.5 1.2 1.4-1.6-1.5-1.1z"
       id="path46" />
    <path
       d="m16.1 36.7l1.5 1.1 1.4-1.5-1.5-1.1z"
       id="path48" />
    <path
       d="m10.5 30.8l-1.5-1.2-1.4 1.6 1.5 1.1z"
       id="path50" />
    <path
       d="m54.6 24.2l-1.5 1.6 1.5 1.2 1.4-1.6z"
       id="path52" />
    <path
       d="m56 50.1l-2.6-2-2.5 2.7 2.6 2z"
       id="path54" />
    <path
       d="m38.6 50.6l-2.6-2-2.6 2.7 2.7 1.9z"
       id="path56" />
    <path
       d="m12.5 53.2l-2.6-2-2.5 2.7 2.7 1.9z"
       id="path58" />
    <path
       d="m33.8 54l-2.1-1.5-2 2.1 2.1 1.5z"
       id="path60" />
    <path
       d="m14.5 56.6l1.9-2.1-2.1-1.5-1.9 2.1z"
       id="path62" />
    <path
       d="m40.5 56.3l2-2.1-2.1-1.5-2 2.1z"
       id="path64" />
    <path
       d="m50.7 48.5l-2.3-1.7-2.2 2.3 2.2 1.7z"
       id="path66" />
    <path
       d="m44.8 53.4l1.4-1.5-1.5-1.1-1.4 1.5z"
       id="path68" />
    <path
       d="m28.8 52.4l-1.5-1.1-1.4 1.5 1.5 1.1z"
       id="path70" />
    <path
       d="m24.6 55.7l-1.5-1-1.4 1.4 1.5 1.1z"
       id="path72" />
    <path
       d="m20.1 52.6l-1.5-1.1-1.4 1.5 1.5 1.1z"
       id="path74" />
    <path
       d="m10.7 58.9l1.5 1.1 1.3-1.5-1.5-1.1z"
       id="path76" />
    <path
       d="m25.5 50.6l-1.5-1.1-1.3 1.5 1.5 1.1z"
       id="path78" />
    <path
       d="m43.2 48.2l-1.4-1.1-1.5 1.5 1.5 1.1z"
       id="path80" />
    <path
       d="m48.5 53.9l1.4 1.1 1.4-1.5-1.4-1.1z"
       id="path82" />
    <path
       d="m6 60l1.4-1.5-1.5-1.1-1.4 1.5z"
       id="path84" />
  </g>
  <path
     d="m62 21.6c0-4.3-17.8-8.7-21.7-8.2-16.7 2.2-38.3 16.5-38.3 16.5 16.6-2.2 50.1-6.5 53-6.8 1.5-.2 2.4.1 2.4 1.3 0 4.3 0 30.3 0 30.3l4.6-.6c0 .1 0-28.6 0-32.5"
     fill="#8f6453"
     id="path88" />
  <path
     d="m55.9 20.9c8.5-1.2-15.5-7.7-19.2-7.2-15.9 2.1-32 14.4-32 14.4s49.2-6.9 51.2-7.2"
     fill="#724e41"
     id="path90" />
</svg>
